<?xml version="1.0" encoding="UTF-8"?>
<svg width="37px" height="37px" viewBox="0 0 37 37" version="1.1" xmlns="http://www.w3.org/2000/svg" xmlns:xlink="http://www.w3.org/1999/xlink">
    <!-- Generator: Sketch 51.2 (57519) - http://www.bohemiancoding.com/sketch -->
    <title>quotes</title>
    <desc>Created with Sketch.</desc>
    <defs></defs>
    <g id="Page-1" stroke="none" stroke-width="1" fill="none" fill-rule="evenodd">
        <g id="iPhone-8_08" transform="translate(-167.000000, -1752.000000)">
            <g id="quotes" transform="translate(-4.000000, 1753.000000)">
                <g transform="translate(172.000000, 0.000000)">
                    <circle id="Oval-2" stroke="#979797" stroke-width="2" cx="17.5" cy="17.5" r="17.5"></circle>
                    <g id="quotations" transform="translate(8.000000, 9.000000)" fill="#6E6E6E" fill-rule="nonzero">
                        <path d="M5.37623048,0.827390972 L4.85604302,0.447124692 L4.8382,0.433274413 L4.80469164,0.419424135 L4.42514095,0.232771693 L4.4363104,0.260399735 C4.07685068,0.108264217 3.69954793,0 3.28873682,0 C1.47134725,-2.5762342e-16 0,1.57871418 0,3.52616484 C0,5.47361549 1.47352494,7.05232967 3.28873682,7.05232967 C3.87144512,7.05232967 4.40954586,6.87720704 4.8850555,6.59142722 C4.72207983,8.47666039 3.80218046,11.2261944 0.430902077,14.0309846 C-0.0401819348,14.4227807 -0.127289626,15.1510442 0.238913917,15.655818 C0.453240985,15.9531276 0.772518772,16.1052632 1.0940445,16.1052632 C1.32621459,16.1052632 1.55845494,16.024627 1.75711667,15.8632821 C5.89424025,12.415433 6.9279416,8.87549039 7.06640068,6.51086356 C7.30306666,3.4870795 6.41449796,1.8968355 5.60179726,1.06719658 L5.37623048,0.827390972 Z" id="Shape"></path>
                        <path d="M16.4929967,1.06705155 L16.2653961,0.827390972 L15.7477134,0.447124692 L15.7298817,0.433274413 L15.6941479,0.419424135 L15.3148369,0.232771693 L15.3259993,0.260399735 C14.9667666,0.108264217 14.5874556,0 14.1769039,0 C12.3629085,0 10.8947368,1.57871418 10.8947368,3.52616484 C10.8947368,5.47361549 12.3629085,7.05232967 14.1813969,7.05232967 C14.7637373,7.05232967 15.3014982,6.87720704 15.7767076,6.59142722 C15.6160813,8.47666039 14.6967629,11.2261944 11.3276133,14.0309846 C10.8545803,14.4227807 10.7697741,15.1510442 11.1357464,15.655818 C11.3499381,15.9531276 11.6690143,16.1052632 11.990337,16.1052632 C12.2223605,16.1052632 12.4544542,16.024627 12.6529905,15.8632821 C16.7897481,12.415433 17.8205502,8.87549039 17.9611683,6.51086356 C18.1976849,3.48700698 17.3096773,1.89676298 16.4929967,1.06705155 Z" id="Shape"></path>
                    </g>
                </g>
            </g>
        </g>
    </g>
</svg>