<?xml version="1.0" encoding="UTF-8"?>
<svg width="50px" height="50px" viewBox="0 0 50 50" version="1.1" xmlns="http://www.w3.org/2000/svg" xmlns:xlink="http://www.w3.org/1999/xlink">
    <!-- Generator: Sketch 51.2 (57519) - http://www.bohemiancoding.com/sketch -->
    <title>pinterest</title>
    <desc>Created with Sketch.</desc>
    <defs></defs>
    <g id="Page-1" stroke="none" stroke-width="1" fill="none" fill-rule="evenodd" opacity="0.8">
        <g id="iPhone-8_08" transform="translate(-269.000000, -3520.000000)">
            <g id="Group-11" transform="translate(59.000000, 3520.000000)">
                <g id="pinterest" transform="translate(210.000000, 0.000000)">
                    <rect id="Rectangle-2" stroke="#5471D9" x="0.5" y="0.5" width="49" height="49"></rect>
                    <g transform="translate(8.000000, 8.000000)" fill="#5471D9" fill-rule="nonzero" id="Shape">
                        <path d="M34.9926556,18.0130834 C35.2782981,8.02662139 27.1947684,-0.142878181 17.2394573,0.0018949681 C7.6577896,0.141237002 -0.0728027315,8.05437099 0.000517265595,17.636809 C0.0531311524,24.5030956 4.06035752,30.4274233 9.85671062,33.2461718 C10.1919969,33.4091901 10.5801516,33.1557098 10.5661495,32.7830844 C10.5238886,31.6571465 10.5602941,30.4534757 10.7856003,29.4858887 C11.0073424,28.5331524 11.8774233,24.84882 12.449472,22.4284947 C12.7279013,21.2501974 12.7615063,20.0266691 12.5373033,18.8368307 C12.4637287,18.4463845 12.4104359,17.9877099 12.4104359,17.4779489 C12.4104359,14.8914654 13.9095923,12.9603647 15.776282,12.9603647 C17.3632696,12.9603647 18.1299049,14.1519003 18.1299049,15.5806229 C18.1299049,17.1766069 17.1136931,19.5627331 16.5892515,21.7741302 C16.1510287,23.6256312 17.5178017,25.135481 19.343843,25.135481 C22.6500318,25.135481 25.1913674,21.6493843 25.1913674,16.6172869 C25.1913674,12.1635184 21.9910853,9.04945302 17.4213995,9.04945302 C12.1286971,9.04945302 9.02201676,13.0193432 9.02201676,17.1220411 C9.02201676,18.7207406 9.63793868,20.4351908 10.406356,21.3671361 C10.5582574,21.5512848 10.5806607,21.7127756 10.5354298,21.9006582 C10.3942209,22.4882369 10.0804045,23.7517348 10.0187953,24.010222 C9.93758326,24.3507698 9.7491916,24.4229018 9.39676342,24.2590349 C7.07335115,23.1775642 5.62095329,19.780996 5.62095329,17.0527096 C5.62095329,11.1848145 9.88429048,5.79613051 17.9116421,5.79613051 C24.3644807,5.79613051 29.379263,10.3942479 29.379263,16.5394692 C29.379263,22.950306 25.3370739,28.1096952 19.7265666,28.1096952 C18.2439582,28.1096952 16.8311056,27.5037864 16.0004851,26.6822455 C15.7450532,26.4296138 15.313195,26.5446855 15.2220542,26.892192 C14.9295379,28.0066737 14.4566918,29.8093794 14.3043661,30.3956004 C14.030095,31.4503398 13.452106,32.67879 12.8726744,33.7486348 C12.7187363,34.0329197 12.8744565,34.3840752 13.1878485,34.4635052 C14.6183522,34.8262867 16.1187815,35.0135753 17.66546,34.9992338 C26.8481956,34.9140331 34.7300953,27.1926005 34.9926556,18.0130834 Z"></path>
                    </g>
                </g>
            </g>
        </g>
    </g>
</svg>